<svg width="65" height="31" viewBox="0 0 65 31" fill="none" xmlns="http://www.w3.org/2000/svg">
<path d="M10.019 30.745C7.783 30.745 5.91966 30.3437 4.429 29.541C2.967 28.7383 1.86333 27.6203 1.118 26.187C0.372663 24.725 -3.39746e-06 23.048 -3.39746e-06 21.156C-3.39746e-06 19.608 0.22933 18.103 0.687997 16.641C1.17533 15.1503 1.90633 13.8317 2.881 12.685C3.85566 11.5097 5.08833 10.578 6.579 9.89C8.09833 9.202 9.87566 8.858 11.911 8.858C13.3157 8.858 14.663 9.073 15.953 9.503C17.243 9.90433 18.2893 10.4633 19.092 11.18L17.415 14.921C16.7843 14.319 16.0103 13.8603 15.093 13.545C14.2043 13.201 13.2583 13.029 12.255 13.029C11.0223 13.029 9.976 13.2583 9.116 13.717C8.256 14.1757 7.55366 14.8063 7.009 15.609C6.493 16.383 6.106 17.243 5.848 18.189C5.61866 19.135 5.504 20.1097 5.504 21.113C5.504 22.747 5.90533 24.0657 6.708 25.069C7.53933 26.0723 8.901 26.574 10.793 26.574C11.5957 26.574 12.4413 26.4163 13.33 26.101C14.2473 25.7857 15.0787 25.3127 15.824 24.682L17.071 28.509C16.5263 28.9677 15.8527 29.369 15.05 29.713C14.276 30.057 13.4447 30.315 12.556 30.487C11.696 30.659 10.8503 30.745 10.019 30.745ZM29.8692 30.745C28.0059 30.745 26.4722 30.401 25.2682 29.713C24.0642 28.9963 23.2185 28.0217 22.7312 26.789C22.2725 25.5563 22.1722 24.123 22.4302 22.489L23.8922 13.33H19.8502L20.4952 9.288H24.5372L25.5262 3.01H30.9012L29.9122 9.288H36.2762L35.6312 13.33H29.2672L27.8482 22.145C27.6189 23.6357 27.7909 24.7107 28.3642 25.37C28.9662 26.0007 29.8835 26.316 31.1162 26.316C31.5462 26.316 31.9619 26.273 32.3632 26.187C32.7645 26.101 33.1515 26.0007 33.5242 25.886L33.8252 29.928C33.3665 30.186 32.7645 30.3867 32.0192 30.53C31.2739 30.6733 30.5572 30.745 29.8692 30.745ZM36.3961 30.315L39.7501 9.288H44.9961L44.1791 14.362H43.7491C44.2651 12.7853 45.1538 11.5097 46.4151 10.535C47.7051 9.53167 49.3105 8.97267 51.2311 8.858L53.0801 8.729L52.9511 13.287L49.4681 13.631C48.1781 13.7457 47.1318 14.0323 46.3291 14.491C45.5265 14.9497 44.9101 15.5947 44.4801 16.426C44.0788 17.2287 43.7778 18.2177 43.5771 19.393L41.8571 30.315H36.3961ZM60.674 30.745C58.2373 30.745 56.4887 30.0713 55.428 28.724C54.3673 27.348 54.0377 25.3557 54.439 22.747L58.051 5.96046e-07H63.426L59.814 22.704C59.6993 23.5353 59.7137 24.2233 59.857 24.768C60.0003 25.3127 60.287 25.714 60.717 25.972C61.1757 26.23 61.7633 26.359 62.48 26.359C62.7953 26.359 63.1107 26.3447 63.426 26.316C63.7413 26.2587 64.0567 26.2157 64.372 26.187L63.641 30.358C63.211 30.4727 62.738 30.5587 62.222 30.616C61.706 30.702 61.19 30.745 60.674 30.745Z" fill="white"/>
</svg>
